<svg xmlns="http://www.w3.org/2000/svg" viewBox="0 0 128 128">
  <path fill="#FF5D01" d="M81.504 9.465c.973 1.207 1.469 2.836 1.362 4.502l-1.26 18.355-.012.153c-.059.828-.45 1.603-1.096 2.168l-.14.122-16.065 13.27c-.404.334-.686.78-.809 1.278l-.043.211-5.813 26.745c-.24 1.105-1.323 1.797-2.43 1.57l-.176-.043-26.745-5.813a2.225 2.225 0 0 1-1.278-.809l-13.27-16.065a2.225 2.225 0 0 1-.122-2.414l.122-.14 13.27-16.065c.334-.404.78-.686 1.278-.809l.211-.043 26.745-5.813c1.105-.24 2.43.324 2.67 1.43l.043.176 5.813 26.745c.123.498.405.944.809 1.278l16.065 13.27c.567.47 1.282.655 1.993.51l18.355-1.26c1.666-.107 3.295.389 4.502 1.362l-.783-.632a9.065 9.065 0 0 1-6.881-1.292l-16.065-13.27a9.065 9.065 0 0 1-3.087-3.087L65.31 24.571a9.065 9.065 0 0 1-1.292-6.881l1.26-18.355c.145-.711-.04-1.426-.51-1.993z"/>
  <path fill="#FF5D01" d="M27.567 84.904c-.404-.334-.686-.78-.809-1.278l-.043-.211-5.813-26.745c-.24-1.105.324-2.43 1.43-2.67l.176-.043 26.745-5.813c.498-.123.944-.405 1.278-.809l13.27-16.065a2.225 2.225 0 0 1 2.414-.122l.14.122-16.065 13.27a2.225 2.225 0 0 0-.809 1.278l-.043.211-5.813 26.745c-.24 1.105-1.323 1.797-2.43 1.57l-.176-.043-26.745-5.813z" opacity=".5"/>
</svg>
